<?xml version="1.0" encoding="UTF-8" standalone="no"?>
<!DOCTYPE svg PUBLIC "-//W3C//DTD SVG 1.1//EN"
 "http://www.w3.org/Graphics/SVG/1.1/DTD/svg11.dtd">
<!-- Generated by graphviz version 2.40.1 (20161225.0304)
 -->
<!-- Title: pc Pages: 1 -->
<svg width="1048pt" height="548pt"
 viewBox="0.00 0.00 1048.28 548.00" xmlns="http://www.w3.org/2000/svg" xmlns:xlink="http://www.w3.org/1999/xlink">
<g id="graph0" class="graph" transform="scale(1 1) rotate(0) translate(4 544)">
<title>pc</title>
<polygon fill="#ffffff" stroke="transparent" points="-4,4 -4,-544 1044.2803,-544 1044.2803,4 -4,4"/>
<!-- Desktop PC -->
<g id="node1" class="node">
<title>Desktop PC</title>
<ellipse fill="none" stroke="#000000" cx="679.8391" cy="-378" rx="53.0913" ry="18"/>
<text text-anchor="middle" x="679.8391" y="-374.3" font-family="Times,serif" font-size="14.00" fill="#000000">Desktop PC</text>
</g>
<!-- Dell U2718Q (L) -->
<g id="node2" class="node">
<title>Dell U2718Q (L)</title>
<ellipse fill="none" stroke="#000000" cx="595.8391" cy="-306" rx="72.2875" ry="18"/>
<text text-anchor="middle" x="595.8391" y="-302.3" font-family="Times,serif" font-size="14.00" fill="#000000">Dell U2718Q (L)</text>
</g>
<!-- Desktop PC&#45;&gt;Dell U2718Q (L) -->
<g id="edge1" class="edge">
<title>Desktop PC&#45;&gt;Dell U2718Q (L)</title>
<path fill="none" stroke="#000000" d="M659.9323,-360.937C649.2103,-351.7468 635.803,-340.2548 624.0262,-330.1604"/>
<polygon fill="#000000" stroke="#000000" points="613.5834,-326.4777 618.7897,-320.4036 624.8638,-325.61 619.6574,-331.6841 613.5834,-326.4777"/>
<polyline fill="none" stroke="#000000" points="622.2606,-328.647 623.7791,-329.9486 "/>
</g>
<!-- Dell U2718Q (C) -->
<g id="node3" class="node">
<title>Dell U2718Q (C)</title>
<ellipse fill="none" stroke="#000000" cx="758.8391" cy="-306" rx="72.5877" ry="18"/>
<text text-anchor="middle" x="758.8391" y="-302.3" font-family="Times,serif" font-size="14.00" fill="#000000">Dell U2718Q (C)</text>
</g>
<!-- Desktop PC&#45;&gt;Dell U2718Q (C) -->
<g id="edge2" class="edge">
<title>Desktop PC&#45;&gt;Dell U2718Q (C)</title>
<path fill="none" stroke="#000000" d="M693.4515,-360.2022C702.6264,-350.9991 714.9302,-339.6423 726.4415,-329.7056"/>
<polygon fill="#000000" stroke="#000000" points="731.6494,-320.0462 736.8228,-326.1483 730.7208,-331.3218 725.5473,-325.2197 731.6494,-320.0462"/>
<polyline fill="none" stroke="#000000" points="728.134,-328.2707 726.6085,-329.5641 "/>
</g>
<!-- Desktop PC&#45;&gt;Dell U2718Q (C) -->
<g id="edge4" class="edge">
<title>Desktop PC&#45;&gt;Dell U2718Q (C)</title>
<path fill="none" stroke="#000000" d="M711.4539,-354.9689C720.2579,-347.395 729.5809,-338.9371 737.6511,-331.21"/>
<polygon fill="#000000" stroke="#000000" points="708.9093,-352.5366 703.5262,-361.6621 713.4251,-357.8853 708.9093,-352.5366"/>
<polygon fill="#000000" stroke="#000000" points="740.5384,-333.2816 745.2382,-323.7862 735.6428,-328.2783 740.5384,-333.2816"/>
</g>
<!-- Dell U2718Q (R) -->
<g id="node4" class="node">
<title>Dell U2718Q (R)</title>
<ellipse fill="none" stroke="#000000" cx="432.8391" cy="-306" rx="72.5877" ry="18"/>
<text text-anchor="middle" x="432.8391" y="-302.3" font-family="Times,serif" font-size="14.00" fill="#000000">Dell U2718Q (R)</text>
</g>
<!-- Desktop PC&#45;&gt;Dell U2718Q (R) -->
<g id="edge3" class="edge">
<title>Desktop PC&#45;&gt;Dell U2718Q (R)</title>
<path fill="none" stroke="#000000" d="M637.3158,-367.0647C595.4717,-355.4466 531.6099,-336.9143 486.3551,-323.3097"/>
<polygon fill="#000000" stroke="#000000" points="475.5544,-324.2287 477.8655,-316.5698 485.5245,-318.8809 483.2133,-326.5399 475.5544,-324.2287"/>
<polyline fill="none" stroke="#000000" points="484.3689,-322.7104 486.2836,-323.2882 "/>
</g>
<!-- Desktop PC&#45;&gt;Dell U2718Q (R) -->
<g id="edge5" class="edge">
<title>Desktop PC&#45;&gt;Dell U2718Q (R)</title>
<path fill="none" stroke="#000000" d="M632.1771,-362.4541C592.4289,-350.4508 535.6865,-333.9072 492.8563,-321.8325"/>
<polygon fill="#000000" stroke="#000000" points="631.2261,-365.823 641.8115,-365.3762 633.2579,-359.1243 631.2261,-365.823"/>
<polygon fill="#000000" stroke="#000000" points="493.6893,-318.4311 483.1154,-319.0964 491.7963,-325.1703 493.6893,-318.4311"/>
</g>
<!-- Schiit Modi 2 Uber -->
<g id="node7" class="node">
<title>Schiit Modi 2 Uber</title>
<ellipse fill="none" stroke="#000000" cx="512.8391" cy="-234" rx="79.8859" ry="18"/>
<text text-anchor="middle" x="512.8391" y="-230.3" font-family="Times,serif" font-size="14.00" fill="#000000">Schiit Modi 2 Uber</text>
</g>
<!-- Dell U2718Q (C)&#45;&gt;Schiit Modi 2 Uber -->
<g id="edge11" class="edge">
<title>Dell U2718Q (C)&#45;&gt;Schiit Modi 2 Uber</title>
<path fill="none" stroke="#000000" d="M711.6989,-292.2029C671.8344,-280.5352 614.5281,-263.7626 571.6645,-251.2172"/>
<polygon fill="#000000" stroke="#000000" points="572.5065,-247.8169 561.9259,-248.3669 570.5402,-254.535 572.5065,-247.8169"/>
</g>
<!-- Nintendo Switch -->
<g id="node5" class="node">
<title>Nintendo Switch</title>
<ellipse fill="none" stroke="#000000" cx="122.8391" cy="-450" rx="70.3881" ry="18"/>
<text text-anchor="middle" x="122.8391" y="-446.3" font-family="Times,serif" font-size="14.00" fill="#000000">Nintendo Switch</text>
</g>
<!-- Amazon HDMI audio extractor -->
<g id="node6" class="node">
<title>Amazon HDMI audio extractor</title>
<ellipse fill="none" stroke="#000000" cx="122.8391" cy="-378" rx="122.6784" ry="18"/>
<text text-anchor="middle" x="122.8391" y="-374.3" font-family="Times,serif" font-size="14.00" fill="#000000">Amazon HDMI audio extractor</text>
</g>
<!-- Nintendo Switch&#45;&gt;Amazon HDMI audio extractor -->
<g id="edge6" class="edge">
<title>Nintendo Switch&#45;&gt;Amazon HDMI audio extractor</title>
<path fill="none" stroke="#000000" d="M122.8391,-431.8314C122.8391,-423.5386 122.8391,-413.557 122.8391,-404.4533"/>
<ellipse fill="#000000" stroke="#000000" cx="122.8392" cy="-400.4133" rx="4" ry="4"/>
</g>
<!-- Amazon HDMI audio extractor&#45;&gt;Dell U2718Q (R) -->
<g id="edge7" class="edge">
<title>Amazon HDMI audio extractor&#45;&gt;Dell U2718Q (R)</title>
<path fill="none" stroke="#000000" d="M188.5821,-362.7307C242.6787,-350.1663 318.779,-332.4914 371.6032,-320.2225"/>
<ellipse fill="#000000" stroke="#000000" cx="375.6519" cy="-319.2822" rx="4" ry="4"/>
</g>
<!-- Amazon HDMI audio extractor&#45;&gt;Schiit Modi 2 Uber -->
<g id="edge8" class="edge">
<title>Amazon HDMI audio extractor&#45;&gt;Schiit Modi 2 Uber</title>
<path fill="none" stroke="#000000" d="M164.186,-360.8971C209.6688,-342.2671 285.0518,-311.929 350.8391,-288 385.1784,-275.5097 424.0039,-262.5291 455.0358,-252.4257"/>
<polygon fill="#000000" stroke="#000000" points="455.107,-252.4027 459.5807,-246.7471 466.5219,-248.7014 462.0482,-254.357 455.107,-252.4027"/>
</g>
<!-- Onkyo TX&#45;8255 -->
<g id="node10" class="node">
<title>Onkyo TX&#45;8255</title>
<ellipse fill="none" stroke="#000000" cx="360.8391" cy="-162" rx="69.5877" ry="18"/>
<text text-anchor="middle" x="360.8391" y="-158.3" font-family="Times,serif" font-size="14.00" fill="#000000">Onkyo TX&#45;8255</text>
</g>
<!-- Schiit Modi 2 Uber&#45;&gt;Onkyo TX&#45;8255 -->
<g id="edge12" class="edge">
<title>Schiit Modi 2 Uber&#45;&gt;Onkyo TX&#45;8255</title>
<path fill="none" stroke="#000000" d="M478.3479,-217.6621C456.1554,-207.1498 427.1511,-193.4109 403.5113,-182.2132"/>
<polyline fill="none" stroke="#000000" points="394.4093,-177.9017 403.4467,-182.1826 "/>
<path fill="none" stroke="#000000" d="M396.7876,-184.5608C390.8697,-181.7069 394.9365,-172.6695 401.0685,-175.5235"/>
</g>
<!-- Audio&#45;Technica AT2035 -->
<g id="node8" class="node">
<title>Audio&#45;Technica AT2035</title>
<ellipse fill="none" stroke="#000000" cx="940.8391" cy="-450" rx="99.3824" ry="18"/>
<text text-anchor="middle" x="940.8391" y="-446.3" font-family="Times,serif" font-size="14.00" fill="#000000">Audio&#45;Technica AT2035</text>
</g>
<!-- Focusrite Scarlett 2i2 -->
<g id="node9" class="node">
<title>Focusrite Scarlett 2i2</title>
<ellipse fill="none" stroke="#000000" cx="928.8391" cy="-378" rx="86.3847" ry="18"/>
<text text-anchor="middle" x="928.8391" y="-374.3" font-family="Times,serif" font-size="14.00" fill="#000000">Focusrite Scarlett 2i2</text>
</g>
<!-- Audio&#45;Technica AT2035&#45;&gt;Focusrite Scarlett 2i2 -->
<g id="edge9" class="edge">
<title>Audio&#45;Technica AT2035&#45;&gt;Focusrite Scarlett 2i2</title>
<path fill="none" stroke="#000000" d="M937.811,-431.8314C936.5276,-424.131 935.0015,-414.9743 933.5752,-406.4166"/>
<polygon fill="#000000" stroke="#000000" points="933.5521,-406.2772 936.3468,-395.6734 932.73,-401.3452 931.908,-396.4133 931.908,-396.4133 931.908,-396.4133 932.73,-401.3452 927.4692,-397.1531 933.5521,-406.2772 933.5521,-406.2772"/>
</g>
<!-- Focusrite Scarlett 2i2&#45;&gt;Dell U2718Q (C) -->
<g id="edge10" class="edge">
<title>Focusrite Scarlett 2i2&#45;&gt;Dell U2718Q (C)</title>
<path fill="none" stroke="#000000" d="M890.6878,-361.8418C865.4036,-351.1332 832.0767,-337.0183 805.2556,-325.6588"/>
<polygon fill="#000000" stroke="#000000" points="806.2687,-322.2869 795.6955,-321.6098 803.5387,-328.7326 806.2687,-322.2869"/>
</g>
<!-- Schiit Vali 2 -->
<g id="node13" class="node">
<title>Schiit Vali 2</title>
<ellipse fill="none" stroke="#000000" cx="293.8391" cy="-90" rx="55.7903" ry="18"/>
<text text-anchor="middle" x="293.8391" y="-86.3" font-family="Times,serif" font-size="14.00" fill="#000000">Schiit Vali 2</text>
</g>
<!-- Onkyo TX&#45;8255&#45;&gt;Schiit Vali 2 -->
<g id="edge15" class="edge">
<title>Onkyo TX&#45;8255&#45;&gt;Schiit Vali 2</title>
<path fill="none" stroke="#000000" d="M344.2773,-144.2022C336.0215,-135.3303 325.9031,-124.4569 316.9017,-114.7837"/>
<polyline fill="none" stroke="#000000" points="309.9792,-107.3446 316.7915,-114.6653 "/>
<path fill="none" stroke="#000000" d="M309.725,-114.4111C305.3665,-109.5306 312.3211,-102.7183 317.0457,-107.5988"/>
</g>
<!-- Polk PSW505 -->
<g id="node15" class="node">
<title>Polk PSW505</title>
<ellipse fill="none" stroke="#000000" cx="450.8391" cy="-90" rx="61.1893" ry="18"/>
<text text-anchor="middle" x="450.8391" y="-86.3" font-family="Times,serif" font-size="14.00" fill="#000000">Polk PSW505</text>
</g>
<!-- Onkyo TX&#45;8255&#45;&gt;Polk PSW505 -->
<g id="edge17" class="edge">
<title>Onkyo TX&#45;8255&#45;&gt;Polk PSW505</title>
<path fill="none" stroke="#000000" d="M382.6256,-144.5708C395.5435,-134.2364 411.976,-121.0905 425.4756,-110.2908"/>
<polygon fill="#000000" stroke="#000000" points="425.6594,-103.7406 431.9064,-111.5493 430.3447,-112.7987 424.0977,-104.99 425.6594,-103.7406"/>
<polyline fill="none" stroke="#000000" points="429.5638,-107.0202 425.6594,-110.1437 "/>
</g>
<!-- Auxiliary 3.5mm -->
<g id="node11" class="node">
<title>Auxiliary 3.5mm</title>
<ellipse fill="none" stroke="#000000" cx="215.8391" cy="-234" rx="72.5877" ry="18"/>
<text text-anchor="middle" x="215.8391" y="-230.3" font-family="Times,serif" font-size="14.00" fill="#000000">Auxiliary 3.5mm</text>
</g>
<!-- Auxiliary 3.5mm&#45;&gt;Onkyo TX&#45;8255 -->
<g id="edge13" class="edge">
<title>Auxiliary 3.5mm&#45;&gt;Onkyo TX&#45;8255</title>
<path fill="none" stroke="#000000" d="M248.3799,-217.8418C269.4419,-207.3834 297.047,-193.6761 319.6359,-182.4595"/>
<polyline fill="none" stroke="#000000" points="328.6568,-177.9802 319.7002,-182.4276 "/>
<path fill="none" stroke="#000000" d="M321.9548,-175.7256C328.037,-172.7606 332.2621,-181.7172 326.4022,-184.6822"/>
</g>
<!-- FM antenna -->
<g id="node12" class="node">
<title>FM antenna</title>
<ellipse fill="none" stroke="#000000" cx="360.8391" cy="-234" rx="53.8905" ry="18"/>
<text text-anchor="middle" x="360.8391" y="-230.3" font-family="Times,serif" font-size="14.00" fill="#000000">FM antenna</text>
</g>
<!-- FM antenna&#45;&gt;Onkyo TX&#45;8255 -->
<g id="edge14" class="edge">
<title>FM antenna&#45;&gt;Onkyo TX&#45;8255</title>
<path fill="none" stroke="#000000" d="M360.8391,-215.8314C360.8391,-205 360.8391,-191.2876 360.8391,-180.4133"/>
</g>
<!-- Sennheiser HD650 -->
<g id="node14" class="node">
<title>Sennheiser HD650</title>
<ellipse fill="none" stroke="#000000" cx="271.8391" cy="-18" rx="77.1866" ry="18"/>
<text text-anchor="middle" x="271.8391" y="-14.3" font-family="Times,serif" font-size="14.00" fill="#000000">Sennheiser HD650</text>
</g>
<!-- Schiit Vali 2&#45;&gt;Sennheiser HD650 -->
<g id="edge16" class="edge">
<title>Schiit Vali 2&#45;&gt;Sennheiser HD650</title>
<path fill="none" stroke="#000000" d="M288.2876,-71.8314C285.9088,-64.0463 283.0753,-54.7729 280.4358,-46.1347"/>
<polygon fill="#000000" stroke="#000000" points="280.8126,-35.3905 280.3876,-45.9768 274.1181,-37.4361 280.8126,-35.3905"/>
</g>
<!-- Polk Monitor 40 (L) -->
<g id="node16" class="node">
<title>Polk Monitor 40 (L)</title>
<ellipse fill="none" stroke="#000000" cx="635.8391" cy="-18" rx="83.3857" ry="18"/>
<text text-anchor="middle" x="635.8391" y="-14.3" font-family="Times,serif" font-size="14.00" fill="#000000">Polk Monitor 40 (L)</text>
</g>
<!-- Polk PSW505&#45;&gt;Polk Monitor 40 (L) -->
<g id="edge18" class="edge">
<title>Polk PSW505&#45;&gt;Polk Monitor 40 (L)</title>
<path fill="none" stroke="#000000" d="M487.832,-75.6028C517.3586,-64.1113 558.8592,-47.9597 590.4045,-35.6826"/>
<polygon fill="#000000" stroke="#000000" points="592.6331,-29.45 596.2601,-38.7691 594.3963,-39.4945 590.7693,-30.1754 592.6331,-29.45"/>
<polyline fill="none" stroke="#000000" points="595.3785,-33.7468 590.719,-35.5603 "/>
</g>
<!-- Polk Monitor 40 (R) -->
<g id="node17" class="node">
<title>Polk Monitor 40 (R)</title>
<ellipse fill="none" stroke="#000000" cx="450.8391" cy="-18" rx="83.6854" ry="18"/>
<text text-anchor="middle" x="450.8391" y="-14.3" font-family="Times,serif" font-size="14.00" fill="#000000">Polk Monitor 40 (R)</text>
</g>
<!-- Polk PSW505&#45;&gt;Polk Monitor 40 (R) -->
<g id="edge19" class="edge">
<title>Polk PSW505&#45;&gt;Polk Monitor 40 (R)</title>
<path fill="none" stroke="#000000" d="M450.8391,-71.8314C450.8391,-62.6078 450.8391,-51.295 450.8391,-41.4246"/>
<polygon fill="#000000" stroke="#000000" points="445.8391,-37.4134 455.8391,-37.4132 455.8392,-39.4132 445.8392,-39.4134 445.8391,-37.4134"/>
<polyline fill="none" stroke="#000000" points="450.8391,-36.4133 450.8392,-41.4133 "/>
</g>
<!-- APC BR1500G -->
<g id="node18" class="node">
<title>APC BR1500G</title>
<ellipse fill="none" stroke="#000000" cx="757.8391" cy="-450" rx="65.7887" ry="18"/>
<text text-anchor="middle" x="757.8391" y="-446.3" font-family="Times,serif" font-size="14.00" fill="#000000">APC BR1500G</text>
</g>
<!-- APC BR1500G&#45;&gt;Desktop PC -->
<g id="edge20" class="edge">
<title>APC BR1500G&#45;&gt;Desktop PC</title>
<path fill="none" stroke="#000000" d="M738.9575,-432.5708C729.0166,-423.3946 716.6742,-412.0017 705.8422,-402.0029"/>
<polygon fill="#000000" stroke="#000000" points="707.9997,-399.2312 698.2777,-395.0202 703.2518,-404.3749 707.9997,-399.2312"/>
</g>
<!-- Logitech MX Ergo Plus -->
<g id="node19" class="node">
<title>Logitech MX Ergo Plus</title>
<ellipse fill="none" stroke="#000000" cx="512.8391" cy="-378" rx="96.3833" ry="18"/>
<text text-anchor="middle" x="512.8391" y="-374.3" font-family="Times,serif" font-size="14.00" fill="#000000">Logitech MX Ergo Plus</text>
</g>
<!-- Logitech MX Ergo Plus&#45;&gt;Dell U2718Q (R) -->
<g id="edge21" class="edge">
<title>Logitech MX Ergo Plus&#45;&gt;Dell U2718Q (R)</title>
<path fill="none" stroke="#000000" d="M493.0638,-360.2022C483.0854,-351.2217 470.8282,-340.1902 459.9823,-330.4289"/>
<polygon fill="#000000" stroke="#000000" points="462.1613,-327.6812 452.3869,-323.593 457.4785,-332.8842 462.1613,-327.6812"/>
</g>
<!-- Logitech C922x -->
<g id="node20" class="node">
<title>Logitech C922x</title>
<ellipse fill="none" stroke="#000000" cx="330.8391" cy="-378" rx="67.6881" ry="18"/>
<text text-anchor="middle" x="330.8391" y="-374.3" font-family="Times,serif" font-size="14.00" fill="#000000">Logitech C922x</text>
</g>
<!-- Logitech C922x&#45;&gt;Dell U2718Q (R) -->
<g id="edge22" class="edge">
<title>Logitech C922x&#45;&gt;Dell U2718Q (R)</title>
<path fill="none" stroke="#000000" d="M354.7536,-361.1192C368.339,-351.5295 385.5367,-339.3899 400.3325,-328.9458"/>
<polygon fill="#000000" stroke="#000000" points="402.5697,-331.6508 408.721,-323.0245 398.5329,-325.932 402.5697,-331.6508"/>
</g>
<!-- Kinesis Advantage 2 -->
<g id="node21" class="node">
<title>Kinesis Advantage 2</title>
<ellipse fill="none" stroke="#000000" cx="426.8391" cy="-450" rx="84.485" ry="18"/>
<text text-anchor="middle" x="426.8391" y="-446.3" font-family="Times,serif" font-size="14.00" fill="#000000">Kinesis Advantage 2</text>
</g>
<!-- Kinesis Advantage 2&#45;&gt;Desktop PC -->
<g id="edge23" class="edge">
<title>Kinesis Advantage 2&#45;&gt;Desktop PC</title>
<path fill="none" stroke="#000000" d="M477.9396,-435.6579C516.4222,-424.8316 570.4681,-409.5727 617.8391,-396 621.6103,-394.9195 625.5092,-393.798 629.4304,-392.6669"/>
<polygon fill="#000000" stroke="#000000" points="630.5287,-395.9928 639.1634,-389.8533 628.5847,-389.2681 630.5287,-395.9928"/>
</g>
<!-- Anker USB3 hub -->
<g id="node22" class="node">
<title>Anker USB3 hub</title>
<ellipse fill="none" stroke="#000000" cx="601.8391" cy="-450" rx="72.2875" ry="18"/>
<text text-anchor="middle" x="601.8391" y="-446.3" font-family="Times,serif" font-size="14.00" fill="#000000">Anker USB3 hub</text>
</g>
<!-- Anker USB3 hub&#45;&gt;Desktop PC -->
<g id="edge24" class="edge">
<title>Anker USB3 hub&#45;&gt;Desktop PC</title>
<path fill="none" stroke="#000000" d="M628.3277,-425.549C636.5698,-417.9409 645.6458,-409.563 653.8532,-401.987"/>
<polygon fill="#000000" stroke="#000000" points="625.6948,-423.2162 620.7207,-432.5708 630.4428,-428.3598 625.6948,-423.2162"/>
<polygon fill="#000000" stroke="#000000" points="656.4264,-404.3749 661.4005,-395.0202 651.6785,-399.2312 656.4264,-404.3749"/>
</g>
<!-- Yubico YubiKey 5 -->
<g id="node23" class="node">
<title>Yubico YubiKey 5</title>
<ellipse fill="none" stroke="#000000" cx="601.8391" cy="-522" rx="77.9862" ry="18"/>
<text text-anchor="middle" x="601.8391" y="-518.3" font-family="Times,serif" font-size="14.00" fill="#000000">Yubico YubiKey 5</text>
</g>
<!-- Yubico YubiKey 5&#45;&gt;Anker USB3 hub -->
<g id="edge25" class="edge">
<title>Yubico YubiKey 5&#45;&gt;Anker USB3 hub</title>
<path fill="none" stroke="#000000" d="M601.8391,-503.8314C601.8391,-496.131 601.8391,-486.9743 601.8391,-478.4166"/>
<polygon fill="#000000" stroke="#000000" points="605.3392,-478.4132 601.8391,-468.4133 598.3392,-478.4133 605.3392,-478.4132"/>
</g>
</g>
</svg>
